# xmcd CD database file
#
# Track frame offsets:
#	150
#	20223
#	38580
#	82293
#	85287
#	103354
#	133838
#	163152
#	178111
#	212063
#	228361
#	271329
#
# Disc length: 3905 seconds
#
# Revision: 0
# Processed by: cddbd v1.5.1PL0 Copyright (c) Steve Scherf et al.
# Submitted via: CDex 1.51
#
DISCID=af0f3f0c
DTITLE=Saxea Quartet - Continental Steps
DYEAR=1900
DGENRE=Jazz
TTITLE0=Cóntinental Steps
TTITLE1=Divertimento - piccolo divertimento
TTITLE2=Divertimento - medio divertimento
TTITLE3=Divertimento - grande dievertimento
TTITLE4=First Landscape
TTITLE5=Stran Martino
TTITLE6=Chinese Room
TTITLE7=Lecture
TTITLE8=Black and Tango Fantasy
TTITLE9=Gentle Steps
TTITLE10=Anidride Sinfonica
TTITLE11=Convertible
EXTD=
EXTT0=
EXTT1=
EXTT2=
EXTT3=
EXTT4=
EXTT5=
EXTT6=
EXTT7=
EXTT8=
EXTT9=
EXTT10=
EXTT11=
PLAYORDER=
